<?xml version="1.0" encoding="utf-8"?>
<!-- Generator: Adobe Illustrator 18.1.1, SVG Export Plug-In . SVG Version: 6.00 Build 0)  -->
<!DOCTYPE svg PUBLIC "-//W3C//DTD SVG 1.1//EN" "http://www.w3.org/Graphics/SVG/1.1/DTD/svg11.dtd">
<svg version="1.1" id="Layer_1" xmlns="http://www.w3.org/2000/svg" xmlns:xlink="http://www.w3.org/1999/xlink" x="0px" y="0px"
	 viewBox="0 0 1280 800" style="enable-background:new 0 0 1280 800;" xml:space="preserve">
<style type="text/css">
	.st0{fill:#B0C4DE;stroke:#B0C4DE;stroke-width:3;stroke-miterlimit:10;}
</style>
<line class="st0" x1="0" y1="11.5" x2="1280" y2="11.5"/>
<line class="st0" x1="0" y1="26.5" x2="1280" y2="26.5"/>
<line class="st0" x1="0" y1="52.5" x2="1280" y2="52.5"/>
<line class="st0" x1="0" y1="81.5" x2="1280" y2="81.5"/>
<line class="st0" x1="0" y1="100.5" x2="1280" y2="100.5"/>
<line class="st0" x1="0" y1="123.5" x2="1280" y2="123.5"/>
<line class="st0" x1="0" y1="138.5" x2="1280" y2="138.5"/>
<line class="st0" x1="0" y1="169.5" x2="1280" y2="169.5"/>
<line class="st0" x1="0" y1="188.5" x2="1280" y2="188.5"/>
<line class="st0" x1="0" y1="203.5" x2="1280" y2="203.5"/>
<line class="st0" x1="0" y1="229.5" x2="1280" y2="229.5"/>
<line class="st0" x1="0" y1="258.5" x2="1280" y2="258.5"/>
<line class="st0" x1="0" y1="277.5" x2="1280" y2="277.5"/>
<line class="st0" x1="0" y1="300.5" x2="1280" y2="300.5"/>
<line class="st0" x1="0" y1="315.5" x2="1280" y2="315.5"/>
<line class="st0" x1="0" y1="346.5" x2="1280" y2="346.5"/>
<line class="st0" x1="0" y1="370.5" x2="1280" y2="370.5"/>
<line class="st0" x1="0" y1="385.5" x2="1280" y2="385.5"/>
<line class="st0" x1="0" y1="411.5" x2="1280" y2="411.5"/>
<line class="st0" x1="0" y1="440.5" x2="1280" y2="440.5"/>
<line class="st0" x1="0" y1="459.5" x2="1280" y2="459.5"/>
<line class="st0" x1="0" y1="482.5" x2="1280" y2="482.5"/>
<line class="st0" x1="0" y1="497.5" x2="1280" y2="497.5"/>
<line class="st0" x1="0" y1="528.5" x2="1280" y2="528.5"/>
<line class="st0" x1="0" y1="548.5" x2="1280" y2="548.5"/>
<line class="st0" x1="0" y1="563.5" x2="1280" y2="563.5"/>
<line class="st0" x1="0" y1="589.5" x2="1280" y2="589.5"/>
<line class="st0" x1="0" y1="618.5" x2="1280" y2="618.5"/>
<line class="st0" x1="0" y1="637.5" x2="1280" y2="637.5"/>
<line class="st0" x1="0" y1="660.5" x2="1280" y2="660.5"/>
<line class="st0" x1="0" y1="675.5" x2="1280" y2="675.5"/>
<line class="st0" x1="0" y1="706.5" x2="1280" y2="706.5"/>
<line class="st0" x1="0" y1="723.5" x2="1280" y2="723.5"/>
<line class="st0" x1="0" y1="738.5" x2="1280" y2="738.5"/>
<line class="st0" x1="0" y1="764.5" x2="1280" y2="764.5"/>
<line class="st0" x1="0" y1="789.5" x2="1280" y2="789.5"/>
<g>
</g>
<g>
</g>
<g>
</g>
<g>
</g>
<g>
</g>
<g>
</g>
<g>
</g>
<g>
</g>
<g>
</g>
<g>
</g>
<g>
</g>
<g>
</g>
<g>
</g>
<g>
</g>
<g>
</g>
</svg>
